<svg version="1.0" xmlns="http://www.w3.org/2000/svg"
 width="600.000000pt" height="600.000000pt" viewBox="0 0 600.000000 600.000000"
 preserveAspectRatio="xMidYMid meet">

<g transform="translate(0.000000,600.000000) scale(0.100000,-0.100000)"
fill="#000000" stroke="none">
<path d="M2989 5756 c-2 -2 -69 -9 -149 -16 -210 -17 -420 -45 -545 -74 -164
-36 -355 -111 -469 -183 -26 -17 -41 -21 -46 -14 -4 8 -12 5 -25 -9 -17 -19
-17 -20 1 -27 15 -6 12 -10 -21 -24 -22 -10 -41 -14 -43 -9 -2 5 -24 -2 -50
-15 -26 -12 -72 -28 -102 -35 -65 -15 -110 -36 -127 -61 -7 -9 -36 -34 -64
-55 -28 -20 -54 -47 -59 -59 -5 -14 -20 -25 -39 -28 -30 -6 -31 -8 -25 -51 6
-42 5 -45 -26 -61 l-33 -17 7 27 c7 25 6 26 -14 12 -57 -40 -178 -158 -249
-243 -100 -120 -181 -240 -249 -369 -29 -55 -50 -87 -47 -71 11 49 -21 13 -41
-47 -34 -102 -44 -120 -59 -107 -12 10 -16 8 -24 -11 -98 -261 -121 -344 -103
-374 7 -14 3 -29 -20 -64 -16 -25 -35 -68 -43 -96 -34 -121 -48 -398 -21 -419
11 -8 16 -40 18 -118 4 -126 -11 -131 -38 -12 -9 41 -21 77 -27 81 -7 4 -8 -2
-3 -18 4 -13 11 -127 16 -254 10 -265 22 -328 72 -394 13 -17 18 -41 18 -92 0
-66 13 -96 31 -68 6 10 11 6 18 -14 16 -40 14 -49 -13 -72 l-24 -20 69 -125
c76 -135 128 -205 160 -215 16 -5 19 -14 17 -38 -2 -19 -8 -31 -15 -30 -20 4
-16 -5 34 -76 25 -36 59 -91 74 -122 16 -31 44 -77 64 -103 43 -56 21 -64 -24
-9 -26 31 -31 34 -31 17 0 -39 75 -145 185 -261 61 -63 119 -128 130 -144 15
-21 33 -31 72 -39 52 -11 93 -45 93 -76 0 -17 -1 -17 -34 -4 -14 5 -26 7 -26
4 0 -21 125 -130 223 -196 66 -43 126 -86 135 -97 10 -10 51 -39 93 -65 61
-37 86 -46 122 -46 27 0 49 6 57 15 10 12 19 10 68 -12 31 -14 84 -36 117 -49
50 -19 55 -23 30 -24 -16 0 -62 12 -102 26 -43 16 -80 24 -90 19 -15 -6 -10
-14 36 -55 31 -27 51 -52 47 -59 -5 -7 -1 -9 9 -5 22 9 205 -37 205 -51 0 -25
74 -46 187 -54 64 -5 119 -14 122 -20 5 -8 24 -5 64 9 31 11 73 20 94 21 31 1
34 2 14 8 -19 5 -11 9 40 19 115 23 132 31 126 59 -4 24 -3 25 37 19 22 -3 69
-8 103 -12 70 -7 71 -13 16 -68 -43 -44 -99 -65 -173 -66 -38 -1 -57 -4 -47
-9 10 -4 18 -11 18 -16 -2 -33 152 -27 221 8 36 18 43 27 43 51 0 24 7 33 40
50 34 17 66 21 210 27 156 7 242 17 288 34 34 14 16 -4 -45 -43 -69 -43 -131
-59 -150 -38 -9 10 -22 10 -53 3 -57 -14 -68 -25 -62 -64 7 -40 -8 -46 -98
-41 l-60 3 38 17 c48 22 47 38 -3 38 -30 0 -54 -10 -107 -47 -99 -68 -100 -66
12 -60 252 15 1039 220 1257 327 411 203 847 605 1088 1005 103 170 211 407
273 600 68 210 111 498 88 599 -14 63 -69 148 -81 125 -11 -19 -33 -128 -32
-159 4 -121 1 -194 -8 -208 -8 -13 -9 -6 -4 26 4 32 3 42 -7 40 -8 -2 -15 10
-19 32 l-5 35 -27 -60 c-52 -115 -97 -343 -85 -421 5 -30 -11 -62 -25 -49 -3
3 -3 47 -1 98 l4 92 -59 -131 c-139 -308 -283 -543 -464 -757 -26 -31 -30 -41
-21 -55 7 -13 7 -31 0 -64 -9 -38 -16 -48 -35 -50 l-24 -3 24 -26 24 -25 -23
-17 c-40 -31 -74 -84 -118 -187 -50 -115 -81 -162 -91 -137 -4 12 -31 -4 -117
-71 -62 -47 -124 -92 -140 -100 -50 -25 -51 -7 -1 30 68 50 98 84 90 103 -5
13 -10 14 -27 4 -21 -11 -21 -10 -14 27 3 21 16 56 27 79 l21 40 -41 -37 c-57
-52 -113 -85 -214 -129 -48 -21 -105 -50 -127 -64 -22 -14 -43 -25 -46 -25
-15 0 12 24 100 90 95 71 124 99 63 62 -59 -36 -131 -72 -144 -72 -7 0 -15 8
-18 18 -3 9 -3 -1 0 -22 4 -26 1 -42 -8 -47 -24 -16 -30 -9 -24 26 5 27 4 35
-8 35 -27 0 -64 -18 -101 -51 -36 -32 -37 -34 -31 -88 6 -62 1 -73 -52 -110
-29 -20 -37 -22 -57 -11 -20 11 -32 9 -90 -19 -73 -34 -85 -37 -67 -19 16 16
15 43 -2 57 -10 9 -15 8 -19 -3 -3 -8 -20 -22 -36 -31 -25 -12 -42 -13 -103
-5 -40 6 -93 8 -118 4 l-45 -6 42 30 c47 35 66 59 38 48 -10 -3 -59 -18 -108
-32 -90 -25 -147 -49 -158 -65 -9 -15 -76 -15 -237 1 -100 9 -146 17 -133 22
12 4 25 18 31 32 5 13 17 29 27 35 26 15 1 14 -66 -3 -90 -24 -264 -44 -423
-51 l-148 -6 0 33 c0 19 7 44 16 57 16 23 16 25 -7 42 -30 23 -78 33 -118 24
-20 -4 -45 0 -77 14 -58 26 -68 27 -30 2 l28 -19 -33 -7 c-19 -4 -54 -18 -79
-31 -60 -32 -97 -30 -153 7 -26 17 -49 35 -52 39 -11 18 14 18 48 0 38 -20 77
-26 77 -12 0 5 -17 16 -39 25 -38 17 -83 57 -64 57 6 0 30 -9 54 -20 46 -21
89 -26 89 -11 0 4 -20 14 -44 21 -49 13 -63 32 -40 50 22 19 17 40 -11 40 -46
0 -90 26 -144 86 -63 70 -165 213 -158 220 3 3 19 -2 36 -10 40 -21 63 -21 59
2 -3 14 -14 17 -58 17 -51 0 -56 2 -68 29 -27 63 -104 157 -156 190 -29 18
-87 73 -128 122 -42 49 -88 100 -103 114 -24 22 -23 18 9 -26 40 -57 43 -69
20 -78 -23 -9 -34 2 -34 33 0 31 -23 57 -40 46 -7 -4 -9 -18 -6 -34 6 -25 6
-25 -9 -7 -8 11 -15 15 -15 10 0 -6 15 -28 33 -50 18 -21 54 -69 80 -106 58
-82 150 -165 199 -180 38 -11 53 -38 22 -38 -13 0 -11 -6 10 -25 14 -13 26
-30 26 -38 0 -8 7 -20 15 -27 9 -7 14 -15 11 -17 -9 -9 -67 29 -147 97 -46 38
-87 70 -91 70 -4 0 -8 5 -8 11 0 21 -70 116 -152 204 -80 86 -128 146 -128
159 0 3 25 3 55 0 53 -6 55 -6 55 16 0 51 -39 108 -101 145 -67 41 -80 69 -54
109 12 19 16 37 12 63 l-6 36 29 -28 30 -29 0 36 c0 30 -7 42 -40 68 -33 26
-40 38 -41 68 -1 32 -3 29 -10 -18 -6 -34 -6 -65 0 -82 6 -15 6 -28 1 -28 -10
0 -50 54 -50 68 0 6 -5 14 -11 18 -8 4 -9 -1 -4 -16 6 -19 4 -20 -12 -12 -39
21 -80 92 -52 92 8 0 10 13 4 48 -4 26 -8 61 -10 77 -3 32 -43 173 -53 191 -4
6 -22 30 -39 54 -18 24 -33 52 -33 63 0 20 1 20 25 -3 20 -19 27 -21 39 -11
13 11 17 4 30 -41 8 -29 17 -62 19 -73 4 -21 6 -18 21 29 5 15 9 16 21 6 8 -7
15 -20 15 -28 0 -12 3 -13 11 -5 9 9 6 25 -10 64 -15 33 -20 61 -16 78 6 24 5
25 -8 7 -13 -17 -14 -15 -20 32 -6 53 -35 119 -61 141 -20 17 -20 10 -1 -36 8
-20 14 -38 12 -39 -2 -2 -19 12 -37 31 -29 30 -34 41 -31 78 1 24 -5 82 -14
129 -9 48 -13 98 -9 114 4 17 3 25 -3 21 -10 -6 -24 286 -22 472 l0 86 19 -45
c10 -25 19 -61 20 -80 l1 -35 14 33 c15 35 25 38 57 21 18 -10 25 -8 40 11 10
13 18 38 18 60 0 33 -5 41 -36 59 -19 12 -37 21 -40 21 -2 0 -5 -15 -5 -32 -1
-27 -3 -28 -6 -9 -7 37 25 155 69 256 22 49 49 114 60 142 11 29 33 66 49 82
25 25 29 37 29 84 0 44 5 62 29 94 16 22 42 50 57 62 27 21 29 22 42 4 13 -17
14 -17 27 1 16 22 10 40 -11 32 -8 -3 -14 1 -14 9 0 8 4 15 9 15 4 0 11 29 15
65 6 60 10 69 47 103 60 54 117 91 160 102 50 14 95 83 85 133 -18 98 -18 101
4 130 12 15 28 27 35 27 12 0 12 -6 -1 -35 -8 -19 -11 -35 -6 -35 4 0 28 20
52 45 24 24 46 42 48 40 3 -3 -12 -32 -32 -65 -34 -56 -41 -90 -18 -90 5 0 16
15 23 33 7 17 51 72 96 121 46 48 83 94 83 101 0 24 49 73 121 120 101 67 113
65 39 -5 l-65 -62 50 28 c86 47 195 126 269 194 72 67 114 90 169 90 25 0 28
-2 17 -15 -19 -22 2 -19 58 9 33 17 53 35 64 60 12 24 30 41 54 51 48 20 54
19 54 -6 0 -21 3 -22 68 -16 37 4 119 24 184 46 144 49 218 64 292 60 52 -4
56 -3 56 19 0 25 4 26 68 11 49 -12 78 -29 50 -29 -9 0 -29 -5 -45 -11 l-28
-12 25 -7 c16 -4 43 0 75 12 29 11 61 17 77 14 40 -8 35 7 -14 40 l-42 29 50
6 49 6 -51 1 c-28 1 -53 0 -55 -2z"/>
<path d="M3242 5714 c-6 -7 -45 -23 -84 -35 -84 -24 -88 -27 -68 -39 22 -14
62 -11 84 5 23 17 26 18 46 5 12 -8 10 -14 -15 -41 -30 -31 -30 -31 -5 -24 14
4 44 18 67 31 47 27 90 24 95 -6 3 -18 5 -18 58 3 94 36 199 23 187 -24 -6
-22 61 -38 74 -17 7 10 21 8 71 -11 35 -13 84 -29 111 -37 72 -20 152 -83 142
-111 -6 -18 3 -16 22 3 13 13 33 15 94 12 43 -1 76 -2 74 0 -2 2 -40 12 -85
22 -45 10 -82 20 -84 22 -1 1 -9 19 -18 39 -15 33 -21 37 -68 43 -63 8 -185
52 -225 81 -49 35 -63 39 -205 44 -100 5 -134 9 -132 19 1 7 -10 12 -31 12
-17 0 -46 4 -62 9 -22 6 -34 4 -43 -5z"/>
<path d="M2890 5605 c-18 -22 -9 -27 46 -23 l49 3 -32 18 c-39 21 -47 21 -63
2z"/>
<path d="M3148 5573 c7 -3 16 -2 19 1 4 3 -2 6 -13 5 -11 0 -14 -3 -6 -6z"/>
<path d="M3074 5555 c-18 -14 -18 -14 3 -15 23 0 39 15 25 24 -5 3 -18 -1 -28
-9z"/>
<path d="M3980 5371 c0 -6 4 -12 9 -15 13 -8 42 4 35 15 -7 12 -44 12 -44 0z"/>
<path d="M4207 5343 c88 -67 113 -88 113 -95 0 -15 -28 -8 -81 22 -57 31 -69
35 -69 22 0 -17 99 -62 157 -73 31 -6 70 -17 84 -25 32 -16 159 -64 159 -60 0
2 -24 19 -52 38 -29 19 -87 67 -128 105 -90 84 -124 103 -185 103 l-47 0 49
-37z"/>
<path d="M4443 5142 c19 -20 35 -28 48 -25 24 7 25 5 -31 33 l-45 22 28 -30z"/>
<path d="M4647 5038 c11 -13 26 -40 33 -61 11 -34 34 -57 58 -57 19 0 -12 74
-46 107 -38 39 -79 48 -45 11z"/>
<path d="M4840 4870 c24 -31 29 -44 21 -54 -12 -14 13 -43 56 -65 42 -22 85
-5 65 26 -9 12 -161 133 -168 133 -3 0 9 -18 26 -40z"/>
<path d="M4930 4687 c0 -24 28 -53 69 -72 23 -10 41 -24 41 -32 0 -8 9 -31 20
-53 11 -22 20 -57 20 -78 0 -35 5 -42 40 -66 32 -21 40 -32 40 -56 0 -28 42
-91 54 -80 6 7 -88 265 -103 284 -6 7 -8 15 -5 18 10 10 -46 108 -62 108 -8 0
-32 9 -54 20 -46 23 -60 25 -60 7z"/>
<path d="M855 4548 c-13 -20 -13 -25 -1 -33 7 -6 15 -19 18 -30 3 -18 5 -17
22 8 15 23 17 32 8 52 -14 31 -26 31 -47 3z"/>
<path d="M5260 4157 c0 -16 24 -51 67 -100 35 -40 43 -60 18 -51 -18 7 -18 10
1 -72 8 -37 13 -76 11 -86 -7 -27 8 -22 21 7 32 70 20 208 -18 218 -15 4 -20
14 -20 43 0 20 -3 35 -6 31 -4 -3 -22 0 -40 8 -26 11 -34 11 -34 2z"/>
<path d="M1343 4153 c-10 -4 -13 -115 -13 -508 0 -495 0 -504 20 -510 20 -6
20 -15 20 -471 l0 -464 45 0 45 0 0 -155 0 -155 508 2 507 3 3 123 3 122 109
0 110 0 0 265 0 265 -75 0 -75 0 0 45 0 44 78 3 77 3 3 685 c2 635 1 686 -15
698 -21 15 -385 17 -414 2 -19 -10 -19 -29 -19 -740 l0 -730 -55 0 -55 0 0
-195 0 -195 -100 0 c-151 0 -202 27 -242 129 -19 50 -22 80 -26 261 l-4 205
119 0 118 0 3 38 3 37 -120 0 -121 0 0 594 c0 532 -2 594 -16 600 -19 7 -403
7 -421 -1z m425 -1230 l-3 -28 -95 0 -95 0 -3 28 -3 27 101 0 101 0 -3 -27z"/>
<path d="M3930 4153 c-86 -6 -205 -24 -260 -39 -182 -51 -317 -175 -384 -352
-53 -140 -57 -178 -63 -609 l-5 -403 -34 0 -34 0 0 -160 0 -160 70 0 70 0 0
-129 c0 -112 2 -130 17 -135 9 -4 78 -6 153 -5 l135 1 0 -28 0 -29 -102 -3
-103 -3 0 -88 c0 -74 3 -90 17 -95 9 -4 80 -6 157 -5 95 1 141 -2 144 -10 5
-14 322 -15 322 -1 0 6 70 10 189 10 104 0 196 3 205 6 14 5 16 31 16 180 l0
174 95 0 95 0 -2 288 -3 287 -172 3 -173 2 0 -285 0 -285 -300 0 -300 0 0 270
0 269 -72 3 -73 3 0 30 0 30 73 3 72 3 0 227 c0 253 19 455 49 525 36 83 106
117 241 117 72 0 95 -4 131 -23 86 -46 122 -120 136 -281 l6 -69 151 7 c83 4
176 11 206 14 l55 7 3 50 c3 44 -2 85 -24 197 l-5 28 167 2 c146 3 168 5 178
21 8 12 8 22 0 35 -10 15 -34 18 -188 22 l-177 5 -27 60 c-38 84 -49 101 -89
146 -43 48 -132 103 -208 129 -54 19 -257 52 -293 48 -9 -1 -37 -3 -62 -5z
m675 -428 c0 -19 -7 -20 -95 -20 -91 0 -95 1 -98 23 -3 23 -3 23 95 20 90 -3
98 -5 98 -23z"/>
<path d="M5385 3751 c6 -20 5 -22 -13 -12 -34 18 -34 14 5 -61 35 -67 38 -71
41 -43 5 59 12 74 27 69 25 -10 17 1 -26 36 -37 29 -40 30 -34 11z"/>
<path d="M5383 3551 c4 -18 17 -47 29 -64 13 -17 28 -45 35 -61 11 -29 12 -28
12 29 1 58 0 61 -41 94 l-41 35 6 -33z"/>
<path d="M485 3187 c-11 -89 5 -204 27 -191 11 7 2 173 -12 222 -6 23 -8 19
-15 -31z"/>
<path d="M5431 3180 c-10 -21 -9 -32 3 -62 32 -76 44 -55 22 37 -12 49 -13 49
-25 25z"/>
<path d="M5698 3060 c-20 -27 -24 -95 -7 -106 20 -12 30 13 27 72 l-3 59 -17
-25z"/>
<path d="M630 2426 c0 -36 20 -66 44 -66 29 0 76 19 76 31 0 14 -24 23 -28 11
-2 -8 -17 -3 -40 13 -42 29 -52 31 -52 11z"/>
<path d="M567 2272 c19 -35 43 -61 43 -46 0 5 -14 25 -31 44 l-31 35 19 -33z"/>
<path d="M832 1924 c2 -5 10 -24 17 -41 7 -18 17 -33 22 -33 6 0 31 -20 57
-44 51 -48 93 -69 117 -60 22 9 19 16 -31 64 -27 26 -42 36 -35 23 17 -33 14
-35 -26 -18 -47 20 -91 61 -95 88 -2 11 -9 22 -17 25 -7 2 -12 1 -9 -4z"/>
<path d="M1080 1674 c0 -4 25 -38 56 -75 58 -71 89 -92 57 -39 -9 17 -23 30
-29 30 -7 0 -15 9 -19 19 -12 39 -65 91 -65 65z"/>
<path d="M4691 1308 c-8 -13 -21 -34 -30 -48 l-15 -25 23 20 c36 31 65 75 49
75 -7 0 -19 -10 -27 -22z"/>
<path d="M4523 1170 c-19 -8 -41 -46 -31 -55 1 -2 21 12 43 31 38 32 34 42
-12 24z"/>
<path d="M4362 1081 c-42 -37 -43 -38 -20 -44 24 -7 37 4 64 56 20 37 7 33
-44 -12z"/>
<path d="M1830 932 c0 -28 5 -32 53 -50 28 -11 79 -25 112 -31 83 -17 151 -40
165 -55 8 -11 16 -11 35 -2 14 6 25 14 25 18 0 14 -59 38 -95 38 -45 0 -139
32 -219 73 -34 18 -64 33 -68 35 -5 2 -8 -10 -8 -26z"/>
<path d="M2253 713 c-17 -6 -16 -28 2 -43 20 -16 82 -17 98 -1 10 11 8 13 -10
8 -13 -3 -27 1 -34 10 -17 20 -42 31 -56 26z"/>
<path d="M3721 679 c-6 -18 -11 -34 -11 -36 0 -9 20 10 40 37 21 29 21 30 2
30 -13 0 -24 -11 -31 -31z"/>
<path d="M2865 673 c-31 -8 -47 -25 -42 -45 4 -13 0 -18 -14 -18 -10 0 -19 -5
-19 -11 0 -8 17 -10 51 -7 43 4 57 11 84 41 25 28 30 37 18 41 -17 7 -48 6
-78 -1z"/>
<path d="M3743 409 c-18 -5 -35 -13 -38 -19 -3 -5 8 -5 27 1 18 5 50 9 71 9
23 0 36 4 32 10 -7 12 -48 12 -92 -1z"/>
<path d="M2340 370 c0 -5 12 -10 26 -10 14 0 23 4 19 10 -3 6 -15 10 -26 10
-10 0 -19 -4 -19 -10z"/>
</g>
</svg>
