<svg width="100%" height="100%" viewBox="0 0 298 65" fill="none" xmlns="http://www.w3.org/2000/svg">
    <path
        d="M60.9 46.4H61.5V50.7C62.3 48.1 64.7 46.1 67.9 46.1C71.9 46.1 74.8 49.3 74.8 53.4V53.5C74.8 57.5 71.9 60.8 67.9 60.8C64.7 60.8 62.3 58.8 61.5 56.2V64.9H60.9V46.4ZM74.1 53.4C74.1 49.7 71.6 46.7 67.8 46.7C64 46.7 61.4 49.7 61.4 53.3V53.4C61.4 57 64 60 67.8 60C71.6 60 74.1 57 74.1 53.4Z"
        fill="black" />
    <path
        d="M77.5 53.4C77.5 49.3 80.3 46.1 84.1 46.1C88.4 46.1 90.4 50 90.4 53.4C90.4 53.5 90.4 53.5 90.4 53.5H78.1C78.2 57.5 81 60 84.4 60C86.5 60 88.4 58.7 89.6 57.2L90 57.5C88.8 59.2 86.8 60.5 84.4 60.5C80.5 60.5 77.5 57.8 77.5 53.4ZM89.8 52.9C89.7 49.7 87.7 46.6 84 46.6C80.5 46.6 78.2 49.3 78 52.9H89.8Z"
        fill="black" />
    <path
        d="M94 46.4H94.6V50.8C95.2 48.5 97.2 46.1 100.3 46.1V46.6C100.2 46.6 100.2 46.6 100.2 46.6C96.7 46.6 94.6 50.4 94.6 53V60.2H94V46.4Z"
        fill="black" />
    <path
        d="M103.7 46.9H101.5V46.4H103.7V44.4C103.7 42.8 104.1 41.7 104.9 40.9C105.5 40.3 106.4 40 107.5 40C108.3 40 108.9 40.1 109.4 40.4V41C108.9 40.8 108.1 40.6 107.5 40.6C105.5 40.6 104.3 41.9 104.3 44.6V46.5H109.3V47H104.3V60.2H103.7V46.9Z"
        fill="black" />
    <path
        d="M109.8 53.4C109.8 49.3 112.6 46.1 116.4 46.1C120.7 46.1 122.7 50 122.7 53.4C122.7 53.5 122.7 53.5 122.7 53.5H110.4C110.5 57.5 113.3 60 116.7 60C118.8 60 120.7 58.7 121.9 57.2L122.3 57.5C121.1 59.2 119.1 60.5 116.7 60.5C112.9 60.5 109.8 57.8 109.8 53.4ZM122.1 52.9C122 49.7 120 46.6 116.3 46.6C112.8 46.6 110.5 49.3 110.3 52.9H122.1Z"
        fill="black" />
    <path
        d="M125.3 53.4C125.3 49.4 128.3 46.1 132.3 46.1C134.8 46.1 136.4 47.2 137.9 48.6L137.5 49C136.2 47.6 134.7 46.6 132.3 46.6C128.6 46.6 125.9 49.6 125.9 53.2V53.3C125.9 56.9 128.7 60 132.3 60C134.7 60 136.3 58.8 137.5 57.5L137.9 57.9C136.6 59.4 134.9 60.6 132.2 60.6C128.5 60.5 125.3 57.2 125.3 53.4Z"
        fill="black" />
    <path
        d="M142.1 56.7V46.9H139.9V46.4H142.1V41.7H142.7V46.4H147.9V46.9H142.7V56.6C142.7 58.7 143.6 59.9 145.6 59.9C146.3 59.9 147.1 59.7 147.7 59.4V60C147.1 60.3 146.3 60.4 145.6 60.4C143.3 60.5 142.1 59.1 142.1 56.7Z"
        fill="black" />
    <path
        d="M159.2 46.9H157V46.4H159.2V44.4C159.2 42.8 159.6 41.7 160.4 40.9C161 40.3 161.9 40 163 40C163.8 40 164.4 40.1 164.9 40.4V41C164.4 40.8 163.6 40.6 163 40.6C161 40.6 159.8 41.9 159.8 44.6V46.5H164.8V47H159.8V60.2H159.2V46.9Z"
        fill="black" />
    <path
        d="M165.3 53.4C165.3 49.3 168.1 46.1 171.9 46.1C176.2 46.1 178.2 50 178.2 53.4C178.2 53.5 178.2 53.5 178.2 53.5H165.9C166 57.5 168.8 60 172.2 60C174.3 60 176.2 58.7 177.4 57.2L177.8 57.5C176.6 59.2 174.6 60.5 172.2 60.5C168.5 60.5 165.3 57.8 165.3 53.4ZM177.7 52.9C177.6 49.7 175.6 46.6 171.9 46.6C168.4 46.6 166.1 49.3 165.9 52.9H177.7Z"
        fill="black" />
    <path
        d="M180.9 53.4C180.9 49.3 183.7 46.1 187.5 46.1C191.8 46.1 193.8 50 193.8 53.4C193.8 53.5 193.8 53.5 193.8 53.5H181.5C181.6 57.5 184.4 60 187.8 60C189.9 60 191.8 58.7 193 57.2L193.4 57.5C192.2 59.2 190.2 60.5 187.8 60.5C184 60.5 180.9 57.8 180.9 53.4ZM193.3 52.9C193.2 49.7 191.2 46.6 187.5 46.6C184 46.6 181.7 49.3 181.5 52.9H193.3Z"
        fill="black" />
    <path d="M197.6 40.1H198.2V60.3H197.6V40.1Z" fill="black" />
    <path d="M202.9 40.8H203.7V42.4H202.9V40.8ZM203.2 46.4H203.8V60.2H203.2V46.4Z" fill="black" />
    <path
        d="M208.5 46.4H209.1V50.2C209.5 48.5 211.4 46.1 214.7 46.1C218.4 46.1 220.5 48.6 220.5 52.4V60.2H219.9V52.4C219.9 48.9 218.1 46.6 214.6 46.6C211.6 46.6 209.1 49.2 209.1 52.5V60.2H208.5V46.4Z"
        fill="black" />
    <path
        d="M224.5 62.6L224.8 62.2C226.6 63.6 228.5 64.2 230.7 64.2C234.4 64.2 236.8 62.1 236.8 58V55.2C235.7 57.5 233.4 59.2 230.6 59.2C226.8 59.2 223.8 56.3 223.8 52.7V52.6C223.8 49 226.8 46.1 230.6 46.1C233.4 46.1 235.8 47.8 236.8 50.1V46.4H237.4V58C237.4 60.1 236.8 61.7 235.6 62.8C234.4 63.9 232.7 64.6 230.7 64.6C228.4 64.7 226.4 64 224.5 62.6ZM236.9 52.7C236.9 49.4 234.1 46.6 230.7 46.6C227.2 46.6 224.5 49.2 224.5 52.6V52.7C224.5 56 227.2 58.7 230.7 58.7C234.2 58.6 236.9 56 236.9 52.7Z"
        fill="black" />
    <path
        d="M298 20.9C298 15.9 294.7 13.7 289 12.3C284.1 11 282.9 10.4 282.9 8.49999V8.39999C282.9 6.99999 284.2 5.89999 286.6 5.89999C289 5.89999 291.4 6.99999 294 8.69999L297.3 3.99999C294.5 1.69999 290.9 0.399994 286.8 0.399994C281 0.399994 276.8 3.79999 276.8 8.89999V8.99999C276.8 14.7 280.5 16.3 286.3 17.7C291 19 292 19.7 292 21.3V21.4C292 23.1 290.4 24 287.9 24C284.6 24 282 22.6 279.4 20.5L275.7 24.9C279.1 27.9 283.5 29.4 287.8 29.4C293.7 29.7 298 26.5 298 20.9ZM272.4 24.8L268.4 20.8C266.2 22.8 264.2 24.2 260.9 24.2C256.1 24.2 252.7 20.1 252.7 15.3V15.2C252.7 10.4 256.2 6.39999 260.9 6.39999C263.7 6.39999 265.9 7.69999 268.2 9.69999L272.2 5.09999C269.6 2.49999 266.3 0.699989 260.9 0.699989C252.2 0.699989 246.1 7.29999 246.1 15.4V15.5C246.1 23.7 252.3 30.1 260.7 30.1C266.3 29.8 269.6 27.8 272.4 24.8ZM241.2 0.899994H235V29.3H241.2V0.899994ZM229.9 6.69999V0.899994H206.3V6.69999H214.9V29.3H221.1V6.69999H229.9ZM197.5 15.2C197.5 20 194 24 189 24C184 24 180.4 19.9 180.4 15.1V15C180.4 10.2 183.9 6.19999 188.9 6.19999C193.9 6.09999 197.5 10.2 197.5 15.2ZM204 15.1C204 6.89999 197.7 0.399994 189 0.399994C180.3 0.399994 173.9 6.99999 173.9 15.1V15.2C173.9 23.3 180.2 29.8 188.9 29.8C197.6 29.8 204 23.2 204 15.1ZM163.1 20.8C163.1 22.9 161.4 23.8 158.7 23.8H151.2V17.6H158.5C161.6 17.6 163.1 18.8 163.1 20.8ZM161.5 9.39999C161.5 11.5 159.7 12.4 157 12.4H151.2V6.39999H157.4C160 6.39999 161.5 7.39999 161.5 9.39999ZM169.3 21.5C169.3 17.6 167.3 15.7 163.9 14.5C165.9 13.3 167.7 11.6 167.7 8.39999V8.3C167.7 3.9 164.1 0.899994 158.3 0.899994H145.2V29.3H158.8C165.1 29.3 169.3 26.6 169.3 21.5ZM133.6 15.2C133.6 20 130.1 24 125.1 24C120.1 24 116.5 19.9 116.5 15.1V15C116.5 10.2 120 6.19999 125 6.19999C130.1 6.09999 133.6 10.2 133.6 15.2ZM140.2 15.1C140.2 6.89999 133.9 0.399994 125.2 0.399994C116.5 0.399994 110 6.99999 110 15.1V15.2C110 23.3 116.3 29.8 125 29.8C133.7 29.8 140.2 23.2 140.2 15.1ZM99.3 10.7C99.3 13.1 97.5 14.7 94.5 14.7H88.2V6.49999H94.4C97.4 6.59999 99.3 7.89999 99.3 10.7ZM106.4 29.3L99.5 19.1C103.1 17.7 105.6 14.9 105.6 10.3V10.2C105.6 4.29999 101.6 0.799995 94.9 0.799995H81.9V29.2H88V20.2H93L99.1 29.2H106.5V29.3H106.4Z"
        fill="black" />
    <path
        d="M70.5 10.7C70.5 13.1 68.7 14.7 65.7 14.7H59.4V6.49998H65.6C68.6 6.59998 70.5 7.89998 70.5 10.7ZM77.6 29.3L70.7 19.1C74.3 17.7 76.8 14.9 76.8 10.3V10.2C76.8 4.29998 72.8 0.799988 66.1 0.799988H53V29.2H59.2V20.2H64.1L70.2 29.2H77.6V29.3ZM48.3 29.3V23.7H32.8V17.7H46.2V12.2H32.8V6.39999H48.2V0.799988H26.6V29.2H48.3V29.3ZM21.6 6.59998V0.899986H0V29.3H6.2V17.7H19.8V12.2H6.2V6.49998H21.6V6.59998Z"
        fill="#DEE326" />
</svg>