<svg xmlns="http://www.w3.org/2000/svg" width="100%" height="100%" viewBox="0 0 154 40">
    <g fill="none">
        <g>
            <path fill="#52AE32" d="M57 24h8.327L73 1h-8.268z"></path>
            <path fill="#848D91" d="M74 6h12.293L88 1H75.676z"></path>
            <path fill="#848D91" d="M67 24h12.311L81 19H68.689z"></path>
            <path fill="#848D91" d="M71 15h11.36L84 10H72.64z"></path>
            <path fill="#52AE32" d="M39 1h-8.268L23 24h8.327z"></path>
            <path fill="#848D91" d="M41.291 24h7.712l-4.664-11.923L56 1h-7.339L37 12.017z"></path>
            <path fill="#52AE32" d="M90 24h8.327L106 1h-8.268z"></path>
            <path fill="#848D91"
                d="M104.317 14.402h2.472c2.895 0 4.704 1.207 4.041 3.108-.663 1.902-3.045 2.415-5.94 2.415h-2.503L101 24h6.302c4.312 0 5.79-.513 7.538-1.78 1.176-.876 2.322-2.325 2.865-4.136.814-2.686-.874-5.252-3.588-5.705l.03-.06c2.895-.725 5.247-2.083 5.79-5.312.572-3.441-2.805-6.007-6.755-6.007h-4.342l-1.387 4.286h2.442c2.624 0 3.98 1.238 3.408 2.868-.513 1.539-2.684 2.173-5.096 2.173h-2.503l-1.387 4.075z">
            </path>
            <path fill="#52AE32" d="M140 1h-8.268L124 24h8.327z"></path>
            <path fill="#848D91"
                d="M148 2c0 1.138.904 2 2.017 2A1.98 1.98 0 00152 2c0-1.138-.904-2-1.983-2C148.904.034 148 .897 148 2m.348 0c0-.966.696-1.69 1.635-1.69.904 0 1.634.724 1.634 1.69s-.695 1.724-1.634 1.724c-.94 0-1.635-.724-1.635-1.724m.87 1.207h.347V2.172h.383l.626 1h.383l-.661-1.034c.348-.035.626-.207.626-.62 0-.449-.244-.656-.8-.656h-.905v2.345zm.347-2.07h.487c.244 0 .522.035.522.346 0 .38-.278.38-.626.38h-.383v-.725z">
            </path>
            <path fill="#848D91" d="M140.515 7.119l2.691 8.019h-5.505L136 20.172h8.938l1.33 3.828H154l-8.66-23h-2.69z">
            </path>
        </g>
    </g>
</svg>