<svg width="131" height="24" viewBox="0 0 131 24" fill="none" xmlns="http://www.w3.org/2000/svg">
<g clip-path="url(#clip0_23_25)">
<path d="M34 24H42.327L50 1H41.732L34 24Z" fill="#52AE32"/>
<path d="M51 6H63.293L65 1H52.676L51 6Z" fill="#848D91"/>
<path d="M44 24H56.311L58 19H45.689L44 24Z" fill="#848D91"/>
<path d="M48 15H59.36L61 10H49.64L48 15Z" fill="#848D91"/>
<path d="M16 1H7.732L0 24H8.327L16 1Z" fill="#52AE32"/>
<path d="M18.2911 24H26.0031L21.3391 12.077L33.0001 1H25.6611L14.0001 12.017L18.2911 24Z" fill="#848D91"/>
<path d="M67 24H75.327L83 1H74.732L67 24Z" fill="#52AE32"/>
<path d="M81.317 14.402H83.789C86.684 14.402 88.493 15.609 87.83 17.51C87.167 19.412 84.785 19.925 81.89 19.925H79.387L78 24H84.302C88.614 24 90.092 23.487 91.84 22.22C93.016 21.344 94.162 19.895 94.705 18.084C95.519 15.398 93.831 12.832 91.117 12.379L91.147 12.319C94.042 11.594 96.394 10.236 96.937 7.007C97.509 3.566 94.132 1 90.182 1H85.84L84.453 5.286H86.895C89.519 5.286 90.875 6.524 90.303 8.154C89.79 9.693 87.619 10.327 85.207 10.327H82.704L81.317 14.402Z" fill="#848D91"/>
<path d="M117 1H108.732L101 24H109.327L117 1Z" fill="#52AE32"/>
<path d="M125 2C125 3.138 125.904 4 127.017 4C127.279 4.00041 127.538 3.94883 127.78 3.84826C128.022 3.74768 128.242 3.60011 128.426 3.41409C128.611 3.22806 128.756 3.00729 128.855 2.76455C128.953 2.52182 129.003 2.26195 129 2C129 0.862 128.096 0 127.017 0C125.904 0.034 125 0.897 125 2ZM125.348 2C125.348 1.034 126.044 0.31 126.983 0.31C127.887 0.31 128.617 1.034 128.617 2C128.617 2.966 127.922 3.724 126.983 3.724C126.043 3.724 125.348 3 125.348 2ZM126.218 3.207H126.565V2.172H126.948L127.574 3.172H127.957L127.296 2.138C127.644 2.103 127.922 1.931 127.922 1.518C127.922 1.069 127.678 0.862 127.122 0.862H126.217V3.207H126.218ZM126.565 1.137H127.052C127.296 1.137 127.574 1.172 127.574 1.483C127.574 1.863 127.296 1.863 126.948 1.863H126.565V1.138V1.137Z" fill="#848D91"/>
<path d="M117.515 7.119L120.206 15.138H114.701L113 20.172H121.938L123.268 24H131L122.34 1H119.65L117.515 7.119Z" fill="#848D91"/>
</g>
<defs>
<clipPath id="clip0_23_25">
<rect width="131" height="24" fill="white"/>
</clipPath>
</defs>
</svg>
