<?xml version="1.0" encoding="UTF-8" standalone="no"?>
<!-- Created with Inkscape (http://www.inkscape.org/) -->

<svg xmlns:dc="http://purl.org/dc/elements/1.1/" xmlns:cc="http://creativecommons.org/ns#"
    xmlns:rdf="http://www.w3.org/1999/02/22-rdf-syntax-ns#" xmlns:svg="http://www.w3.org/2000/svg"
    xmlns="http://www.w3.org/2000/svg" xmlns:sodipodi="http://sodipodi.sourceforge.net/DTD/sodipodi-0.dtd"
    xmlns:inkscape="http://www.inkscape.org/namespaces/inkscape" id="svg2" version="1.1" inkscape:version="0.48.4 r9939"
    width="100%" height="100%" viewBox="0 0 212 70" xml:space="preserve" sodipodi:docname="lisec-s-bordeaux-cmyk-druck.pdf">
    <metadata id="metadata8">
        <rdf:RDF>
            <cc:Work rdf:about="">
                <dc:format>image/svg+xml</dc:format>
                <dc:type rdf:resource="http://purl.org/dc/dcmitype/StillImage" />
                <dc:title></dc:title>
            </cc:Work>
        </rdf:RDF>
    </metadata>
    <defs id="defs6">
        <clipPath clipPathUnits="userSpaceOnUse" id="clipPath16">
            <path d="m 0,0 595.276,0 0,212.598 L 0,212.598 0,0 z" id="path18" inkscape:connector-curvature="0" />
        </clipPath>
    </defs>
    <sodipodi:namedview pagecolor="#ffffff" bordercolor="#666666" borderopacity="1" objecttolerance="10"
        gridtolerance="10" guidetolerance="10" inkscape:pageopacity="0" inkscape:pageshadow="2"
        inkscape:window-width="1920" inkscape:window-height="1138" id="namedview4" showgrid="false" units="cm"
        inkscape:zoom="6.2034999" inkscape:cx="100.26196" inkscape:cy="55.498072" inkscape:window-x="-8"
        inkscape:window-y="-8" inkscape:window-maximized="1" inkscape:current-layer="g14" />
    <g id="g10" inkscape:groupmode="layer" inkscape:label="lisec-s-bordeaux-cmyk-druck"
        transform="matrix(1.25,0,0,-1.25,0,70.865842)">
        <g id="g12">
            <g id="g14" clip-path="url(#clipPath16)">
                <g id="g20" transform="matrix(0.24999949,0,0,0.24999949,35.010232,9.1003698)">
                    <path
                        d="m 0,0 c -0.222,-3.901 -1.84,-6.343 -4.694,-6.343 -3.235,0 -5.202,2.664 -5.202,9.99 0,7.327 1.967,9.991 5.202,9.991 2.918,0 4.472,-2.188 4.472,-5.265 l 2.03,0 c 0,3.711 -1.903,6.978 -6.502,6.978 -4.631,0 -7.232,-3.584 -7.232,-11.704 0,-8.119 2.601,-11.703 7.232,-11.703 4.06,0 6.438,2.886 6.724,8.056 L 0,0 z m 4.726,-7.675 2.03,0 0,10.339 3.837,0 c 3.648,0 4.377,-1.268 4.504,-5.265 l 0.064,-1.903 c 0.031,-1.205 0.126,-2.379 0.602,-3.171 l 2.379,0 c -0.793,0.888 -0.92,2.093 -0.952,3.33 l -0.063,2.474 c -0.095,3.489 -1.047,5.106 -3.869,5.36 l 0,0.063 c 3.013,0.571 4.091,3.013 4.091,5.741 0,3.521 -2.093,5.677 -5.868,5.677 l -6.755,0 0,-22.645 z m 2.03,20.933 3.71,0 c 3.68,0 4.853,-1.681 4.853,-4.441 0,-2.981 -1.871,-4.44 -5.075,-4.44 l -3.488,0 0,8.881 z m 13.828,-20.933 11.513,0 0,1.712 -9.483,0 0,9.262 8.595,0 0,1.712 -8.595,0 0,8.247 9.198,0 0,1.712 -11.228,0 0,-22.645 z m 16.714,8.309 3.489,12.751 0.064,0 3.489,-12.751 -7.042,0 z m -4.44,-8.309 2.157,0 1.839,6.597 7.93,0 1.839,-6.597 2.157,0 -6.692,22.645 -2.538,0 -6.692,-22.645 z m 20.172,0 2.03,0 0,20.933 5.836,0 0,1.712 -13.702,0 0,-1.712 5.836,0 0,-20.933 z m 9.959,0 2.03,0 0,22.646 -2.03,0 0,-22.646 z m 5.709,0 2.03,0 0,19.727 0.063,0 8.659,-19.727 2.727,0 0,22.645 -2.03,0 0,-19.728 -0.063,0 -8.659,19.728 -2.727,0 0,-22.645 z m 28.798,9.832 0,-0.476 c 0,-5.297 -1.681,-8.024 -4.726,-8.024 -3.235,0 -5.201,2.664 -5.201,9.99 0,7.327 1.966,9.991 5.201,9.991 2.982,0 4.472,-2.283 4.472,-5.011 l 2.03,0 c -0.253,3.901 -2.188,6.724 -6.502,6.724 -4.63,0 -7.231,-3.584 -7.231,-11.704 0,-8.119 2.601,-11.703 7.231,-11.703 2.252,0 4.282,1.617 4.98,4.123 l 0.063,0 0,-3.742 1.586,0 0,11.544 -7.263,0 0,-1.712 5.36,0 z m 15.985,-9.832 2.537,0 5.963,22.645 -2.156,0 -5.043,-20.489 -0.064,0 -5.043,20.489 -2.157,0 5.963,-22.645 z m 10.498,0 2.03,0 0,22.646 -2.03,0 0,-22.646 z m 17.666,16.841 c 0,4.028 -1.935,6.185 -6.153,6.185 -3.933,0 -6.248,-2.442 -6.248,-5.995 0,-8.214 10.974,-4.376 10.974,-11.1 0,-3.172 -2.03,-4.599 -4.885,-4.599 -2.981,0 -4.503,1.934 -4.503,4.821 l 0,0.856 -2.03,0 0,-0.666 c 0,-4.44 2.347,-6.724 6.597,-6.724 4.123,0 6.851,2.252 6.851,6.629 0,7.961 -10.974,4.25 -10.974,11.006 0,2.251 1.522,4.059 4.281,4.059 2.76,0 4.06,-1.681 4.06,-4.472 l 2.03,0 z m 3.394,-16.841 2.03,0 0,22.646 -2.03,0 0,-22.646 z m 5.518,11.322 c 0,-8.119 2.601,-11.703 7.232,-11.703 4.63,0 7.231,3.584 7.231,11.703 0,8.12 -2.601,11.704 -7.231,11.704 -4.631,0 -7.232,-3.584 -7.232,-11.704 m 2.03,0 c 0,7.327 1.966,9.991 5.202,9.991 3.235,0 5.201,-2.664 5.201,-9.991 0,-7.326 -1.966,-9.99 -5.201,-9.99 -3.236,0 -5.202,2.664 -5.202,9.99 m 15.795,-11.322 2.03,0 0,19.727 0.063,0 8.659,-19.727 2.728,0 0,22.645 -2.03,0 0,-19.728 -0.064,0 -8.658,19.728 -2.728,0 0,-22.645 z m 28.989,16.841 c 0,4.028 -1.935,6.185 -6.153,6.185 -3.933,0 -6.249,-2.442 -6.249,-5.995 0,-8.214 10.975,-4.376 10.975,-11.1 0,-3.172 -2.03,-4.599 -4.885,-4.599 -2.981,0 -4.504,1.934 -4.504,4.821 l 0,0.856 -2.03,0 0,-0.666 c 0,-4.44 2.348,-6.724 6.598,-6.724 4.123,0 6.85,2.252 6.85,6.629 0,7.961 -10.974,4.25 -10.974,11.006 0,2.251 1.523,4.059 4.282,4.059 2.76,0 4.06,-1.681 4.06,-4.472 l 2.03,0 z m 4.218,-16.841 2.157,0 0,3.235 -2.157,0 0,-3.235 z m 15.129,20.933 3.457,0 c 3.108,0 4.821,-1.301 4.821,-4.694 0,-3.489 -2.125,-4.695 -4.821,-4.695 l -3.457,0 0,9.389 z m -2.03,-20.933 2.03,0 0,9.832 3.393,0 c 5.17,0 6.915,2.918 6.915,6.407 0,3.837 -1.84,6.406 -6.217,6.406 l -6.121,0 0,-22.645 z m 15.224,0 2.03,0 0,10.339 3.837,0 c 3.648,0 4.377,-1.268 4.504,-5.265 l 0.064,-1.903 c 0.031,-1.205 0.127,-2.379 0.602,-3.171 l 2.379,0 c -0.793,0.888 -0.92,2.093 -0.951,3.33 l -0.064,2.474 c -0.095,3.489 -1.047,5.106 -3.869,5.36 l 0,0.063 c 3.013,0.571 4.091,3.013 4.091,5.741 0,3.521 -2.093,5.677 -5.867,5.677 l -6.756,0 0,-22.645 z m 2.03,20.933 3.711,0 c 3.679,0 4.852,-1.681 4.852,-4.441 0,-2.981 -1.871,-4.44 -5.074,-4.44 l -3.489,0 0,8.881 z M 245.58,3.647 c 0,-8.119 2.601,-11.703 7.231,-11.703 4.631,0 7.232,3.584 7.232,11.703 0,8.12 -2.601,11.704 -7.232,11.704 -4.63,0 -7.231,-3.584 -7.231,-11.704 m 2.03,0 c 0,7.327 1.966,9.991 5.201,9.991 3.236,0 5.202,-2.664 5.202,-9.991 0,-7.326 -1.966,-9.99 -5.202,-9.99 -3.235,0 -5.201,2.664 -5.201,9.99 m 20.077,-11.322 2.537,0 5.963,22.645 -2.157,0 -5.043,-20.489 -0.063,0 -5.043,20.489 -2.157,0 5.963,-22.645 z m 10.498,0 2.03,0 0,22.646 -2.03,0 0,-22.646 z m 5.708,0 5.456,0 c 6.597,0 8.214,3.932 8.214,11.322 0,7.39 -1.617,11.323 -8.214,11.323 l -5.456,0 0,-22.645 z m 2.03,20.933 3.299,0 c 4.44,0 6.311,-2.221 6.311,-9.642 0,-7.359 -1.871,-9.579 -6.311,-9.579 l -3.299,0 0,19.221 z m 15.129,-20.933 2.03,0 0,22.646 -2.03,0 0,-22.646 z m 5.709,0 2.029,0 0,19.727 0.064,0 8.659,-19.727 2.727,0 0,22.645 -2.03,0 0,-19.728 -0.063,0 -8.659,19.728 -2.727,0 0,-22.645 z m 28.798,9.832 0,-0.476 c 0,-5.297 -1.681,-8.024 -4.726,-8.024 -3.235,0 -5.201,2.664 -5.201,9.99 0,7.327 1.966,9.991 5.201,9.991 2.982,0 4.472,-2.283 4.472,-5.011 l 2.03,0 c -0.254,3.901 -2.188,6.724 -6.502,6.724 -4.63,0 -7.231,-3.584 -7.231,-11.704 0,-8.119 2.601,-11.703 7.231,-11.703 2.252,0 4.282,1.617 4.98,4.123 l 0.063,0 0,-3.742 1.586,0 0,11.544 -7.263,0 0,-1.712 5.36,0 z m 24.834,7.009 c 0,4.028 -1.935,6.185 -6.153,6.185 -3.933,0 -6.249,-2.442 -6.249,-5.995 0,-8.214 10.974,-4.376 10.974,-11.1 0,-3.172 -2.029,-4.599 -4.884,-4.599 -2.981,0 -4.504,1.934 -4.504,4.821 l 0,0.856 -2.03,0 0,-0.666 c 0,-4.44 2.347,-6.724 6.597,-6.724 4.124,0 6.851,2.252 6.851,6.629 0,7.961 -10.974,4.25 -10.974,11.006 0,2.251 1.523,4.059 4.282,4.059 2.759,0 4.06,-1.681 4.06,-4.472 l 2.03,0 z m 3.076,-5.519 c 0,-8.119 2.601,-11.703 7.231,-11.703 4.631,0 7.232,3.584 7.232,11.703 0,8.12 -2.601,11.704 -7.232,11.704 -4.63,0 -7.231,-3.584 -7.231,-11.704 m 2.03,0 c 0,7.327 1.966,9.991 5.201,9.991 3.236,0 5.202,-2.664 5.202,-9.991 0,-7.326 -1.966,-9.99 -5.202,-9.99 -3.235,0 -5.201,2.664 -5.201,9.99 m 15.795,-11.322 11.418,0 0,1.712 -9.388,0 0,20.933 -2.03,0 0,-22.645 z m 13.194,6.343 c 0,-4.758 2.315,-6.724 6.47,-6.724 4.155,0 6.47,1.966 6.47,6.724 l 0,16.302 -2.029,0 0,-16.27 c 0,-3.394 -1.459,-5.043 -4.441,-5.043 -2.981,0 -4.44,1.649 -4.44,5.043 l 0,16.27 -2.03,0 0,-16.302 z m 20.426,-6.343 2.03,0 0,20.933 5.835,0 0,1.712 -13.701,0 0,-1.712 5.836,0 0,-20.933 z m 9.958,0 2.03,0 0,22.646 -2.03,0 0,-22.646 z m 5.519,11.322 c 0,-8.119 2.6,-11.703 7.231,-11.703 4.631,0 7.232,3.584 7.232,11.703 0,8.12 -2.601,11.704 -7.232,11.704 -4.631,0 -7.231,-3.584 -7.231,-11.704 m 2.03,0 c 0,7.327 1.966,9.991 5.201,9.991 3.235,0 5.202,-2.664 5.202,-9.991 0,-7.326 -1.967,-9.99 -5.202,-9.99 -3.235,0 -5.201,2.664 -5.201,9.99 m 15.795,-11.322 2.029,0 0,19.727 0.064,0 8.659,-19.727 2.727,0 0,22.645 -2.03,0 0,-19.728 -0.063,0 -8.659,19.728 -2.727,0 0,-22.645 z m 28.988,16.841 c 0,4.028 -1.934,6.185 -6.153,6.185 -3.933,0 -6.248,-2.442 -6.248,-5.995 0,-8.214 10.974,-4.376 10.974,-11.1 0,-3.172 -2.03,-4.599 -4.884,-4.599 -2.982,0 -4.504,1.934 -4.504,4.821 l 0,0.856 -2.03,0 0,-0.666 c 0,-4.44 2.347,-6.724 6.597,-6.724 4.123,0 6.851,2.252 6.851,6.629 0,7.961 -10.974,4.25 -10.974,11.006 0,2.251 1.522,4.059 4.282,4.059 2.759,0 4.06,-1.681 4.06,-4.472 l 2.029,0 z m 4.219,-16.841 2.157,0 0,3.235 -2.157,0 0,-3.235 z"
                        style="fill:#3c454b;fill-opacity:1;fill-rule:nonzero;stroke:none" id="path22"
                        inkscape:connector-curvature="0" />
                </g>
                <g id="g24" transform="matrix(0.24999949,0,0,0.24999949,34.410408,28.61518)">
                    <path
                        d="m 0,0 c 0.037,0.176 0.07,0.672 0.07,0.861 0,1.444 -1.166,2.614 -2.607,2.637 l -35.826,0 23.632,86.713 c 0.028,0.22 0.053,0.563 0.053,0.719 0,1.301 -0.959,2.335 -2.195,2.555 l -28.343,0 c -1.793,-0.055 -3.206,-1.33 -3.614,-3.016 l -32.051,-117.511 0.018,-0.006 c -0.034,-0.146 -0.088,-0.282 -0.088,-0.438 0,-1.036 0.808,-1.865 1.828,-1.947 l 69.823,0 c 0.68,0.175 1.23,0.619 1.56,1.225 L 0.015,-0.007 0,0 z"
                        style="fill:#881b4c;fill-opacity:1;fill-rule:nonzero;stroke:none" id="path26"
                        inkscape:connector-curvature="0" />
                </g>
                <g id="g28" transform="matrix(0.24999949,0,0,0.24999949,41.864793,44.612797)">
                    <path
                        d="m 0,0 0.003,-0.005 29.337,0 c 0.925,0.136 1.653,0.76 1.975,1.613 l 6.825,24.914 c 0.009,0.145 0.019,0.291 0.019,0.371 0,1.384 -1.075,2.486 -2.43,2.6 l -28.062,0 c -1.61,0 -2.895,-1.01 -3.487,-2.402 L -2.43,3.054 C -2.439,2.814 -2.45,2.608 -2.45,2.557 -2.45,1.177 -1.361,0.071 0,0"
                        style="fill:#881b4c;fill-opacity:1;fill-rule:nonzero;stroke:none" id="path30"
                        inkscape:connector-curvature="0" />
                </g>
                <g id="g32" transform="matrix(0.24999949,0,0,0.24999949,48.732004,41.674753)">
                    <path
                        d="m 0,0 c 0,1.461 -1.183,2.645 -2.642,2.645 l -0.007,0 -0.002,0.021 -28.153,0 c -1.557,-0.198 -2.768,-1.298 -3.197,-2.78 l -21.825,-79.358 c -0.02,-0.083 -0.049,-0.163 -0.049,-0.252 0,-1.037 0.809,-1.865 1.828,-1.948 l 23.346,-0.006 0.003,0.006 7.128,0 c 0.925,0.136 1.652,0.759 1.975,1.613 l 6.825,24.916 c 0.004,0.043 0.004,0.073 0.005,0.116 L -0.051,-0.864 -0.07,-0.858 C -0.034,-0.679 0,-0.186 0,0"
                        style="fill:#881b4c;fill-opacity:1;fill-rule:nonzero;stroke:none" id="path34"
                        inkscape:connector-curvature="0" />
                </g>
                <g id="g36" transform="matrix(0.24999949,0,0,0.24999949,46.379659,21.902794)">
                    <path
                        d="m 0,0 c 0,-1.358 1.045,-2.441 2.367,-2.587 l 23.809,0 7.827,0 14.841,0 c 7.472,0.381 13.9,1.726 20.907,4.627 5.666,2.398 12.406,6.383 18.339,12.544 5.947,6.105 10.543,14.104 12.779,22.471 2.325,8.314 2.049,16.071 -0.422,21.854 -1.819,4.363 -4.727,7.63 -7.797,9.911 -4.69,3.465 -9.613,4.922 -13.505,5.714 -3.862,0.762 -6.667,0.798 -7.525,0.805 L 59.779,75.335 c -8.123,0 -6.044,12.064 2.212,12.064 l 0.29,-0.004 16.175,0 32.998,0 c 0.884,0.242 1.566,0.928 1.801,1.824 l 0.017,-0.003 7.652,27.984 c 0.016,0.208 0.036,0.425 0.036,0.546 0,1.36 -1.047,2.441 -2.368,2.587 l -24.516,0 -14.492,0 -7.452,0 C 64.67,119.999 58.264,118.597 51.28,115.706 45.613,113.306 38.876,109.32 32.938,103.162 26.989,97.056 22.396,89.057 20.158,80.681 c -2.324,-8.307 -2.05,-16.064 0.424,-21.848 1.814,-4.359 4.723,-7.631 7.794,-9.91 4.692,-3.462 9.616,-4.921 13.507,-5.717 3.846,-0.759 6.649,-0.795 7.523,-0.802 l 11.614,-0.006 0.372,-0.032 c 3.374,-0.263 5.436,-3.205 4.53,-6.52 -0.719,-2.624 -3.056,-4.634 -5.595,-5.29 -0.473,-0.113 -1.027,-0.215 -1.665,-0.212 l -23.531,0 0,0.01 -25.625,0 C 8.62,30.112 7.935,29.423 7.703,28.529 L 7.688,28.532 0.036,0.546 C 0.017,0.338 0,0.122 0,0"
                        style="fill:#881b4c;fill-opacity:1;fill-rule:nonzero;stroke:none" id="path38"
                        inkscape:connector-curvature="0" />
                </g>
                <g id="g40" transform="matrix(0.24999949,0,0,0.24999949,99.968474,51.339658)">
                    <path
                        d="m 0,0 c 0,1.36 -1.045,2.44 -2.367,2.585 l -47.614,0 -19.873,0 -8.191,0 c -1.61,0 -2.893,-1.01 -3.486,-2.401 l -32.224,-118.432 c -0.008,-0.046 -0.03,-0.083 -0.03,-0.136 0,-1.043 0.813,-1.868 1.834,-1.951 l 77.932,0 c 0.884,0.239 1.568,0.931 1.802,1.822 l 0.016,-0.003 7.652,27.982 c 0.016,0.209 0.035,0.427 0.035,0.547 0,1.361 -1.046,2.441 -2.367,2.587 l -44.322,0 3.935,14.445 44.329,0 c 0.727,0.195 1.298,0.702 1.618,1.378 l 6.414,23.55 c 0.023,0.219 0.041,0.477 0.041,0.613 0,1.414 -1.118,2.547 -2.519,2.617 l -42.214,0 3.935,14.445 46.158,0 c 0.886,0.241 1.571,0.93 1.803,1.825 l 0.015,-0.004 7.652,27.986 C -0.017,-0.338 0,-0.121 0,0"
                        style="fill:#881b4c;fill-opacity:1;fill-rule:nonzero;stroke:none" id="path42"
                        inkscape:connector-curvature="0" />
                </g>
                <g id="g44" transform="matrix(0.24999949,0,0,0.24999949,123.83697,51.985982)">
                    <path
                        d="M 0,0 -40.011,0 C -48.216,-0.368 -55.25,-1.908 -62.914,-5.088 -69.131,-7.724 -76.511,-12.11 -83,-18.88 c -6.254,-6.451 -11.113,-14.826 -13.62,-23.637 -0.101,-0.364 -10.255,-37.956 -10.348,-38.317 -2.502,-9.132 -2.156,-17.664 0.6,-24.024 2.025,-4.793 5.245,-8.39 8.633,-10.897 5.182,-3.803 10.608,-5.41 14.889,-6.284 2.302,-0.454 4.246,-0.666 5.712,-0.775 l 0.003,-0.063 1.029,0 c 0.695,-0.03 1.23,-0.04 1.535,-0.043 l 0.007,0.043 47.649,0 c 0.883,0.242 1.568,0.931 1.802,1.825 l 0.017,-0.003 7.651,27.986 c 0.016,0.205 0.033,0.424 0.033,0.546 0,1.358 -1.042,2.441 -2.365,2.584 l -49.113,0 c -4.611,0 -6.256,3.537 -5.512,6.959 0.045,0.205 9.226,33.663 9.289,33.865 4.535,15.197 18.842,16.121 23.97,16.177 l 34.001,0 c 0.883,0.242 1.568,0.931 1.802,1.825 l 0.015,-0.003 7.653,27.986 c 0.016,0.207 0.035,0.424 0.035,0.545 C 2.367,-1.225 1.322,-0.146 0,0"
                        style="fill:#881b4c;fill-opacity:1;fill-rule:nonzero;stroke:none" id="path46"
                        inkscape:connector-curvature="0" />
                </g>
            </g>
        </g>
    </g>
</svg>