<svg version="1.0" xmlns="http://www.w3.org/2000/svg"
 width="920.000000pt" height="110.000000pt" viewBox="0 0 920.000000 110.000000"
 preserveAspectRatio="xMidYMid meet">

<g transform="translate(0.000000,110.000000) scale(0.100000,-0.100000)"
fill="#000000" stroke="none">
<path d="M1010 810 l0 -210 -25 0 c-18 0 -25 -5 -25 -20 0 -15 7 -20 25 -20
l25 0 0 -240 0 -241 83 3 82 3 3 233 c1 143 6 232 12 232 6 0 10 88 10 235 l0
235 -95 0 -95 0 0 -210z m90 -230 c0 -5 -18 -10 -40 -10 -22 0 -40 5 -40 10 0
6 18 10 40 10 22 0 40 -4 40 -10z"/>
<path d="M1430 665 c0 -309 2 -355 15 -355 12 0 15 -17 15 -95 0 -88 -1 -95
-20 -95 -11 0 -20 -7 -20 -15 0 -12 16 -15 85 -15 69 0 85 3 85 15 0 8 7 15
15 15 8 0 15 9 15 20 0 15 -7 20 -25 20 -16 0 -25 6 -25 15 0 9 9 15 25 15 24
0 25 2 25 74 0 41 -4 78 -10 81 -13 8 -13 145 0 145 6 0 13 -13 17 -30 3 -16
12 -30 19 -30 10 0 14 -16 14 -60 0 -53 2 -60 20 -60 18 0 20 -7 20 -55 l0
-55 35 0 c34 0 35 -1 35 -40 l0 -40 60 0 60 0 0 65 c0 63 1 65 25 65 22 0 25
4 25 34 0 30 3 35 28 38 26 3 27 5 32 82 3 51 10 81 18 84 8 3 12 -12 12 -52
0 -43 3 -56 15 -56 12 0 15 -19 15 -110 0 -67 -4 -110 -10 -110 -5 0 -10 -18
-10 -40 l0 -40 85 0 85 0 0 100 0 100 50 0 c38 0 50 4 50 15 0 11 -12 15 -49
15 l-48 0 -6 83 c-4 45 -7 205 -7 355 l0 273 -97 -3 -98 -3 -70 -247 -70 -248
-40 0 -40 0 -70 248 -70 247 -107 3 -108 3 0 -356z m153 -162 c-7 -2 -19 -2
-25 0 -7 3 -2 5 12 5 14 0 19 -2 13 -5z m160 0 c-24 -2 -62 -2 -85 0 -24 2 -5
4 42 4 47 0 66 -2 43 -4z m235 0 c-21 -2 -55 -2 -75 0 -21 2 -4 4 37 4 41 0
58 -2 38 -4z m140 0 c-16 -2 -40 -2 -55 0 -16 2 -3 4 27 4 30 0 43 -2 28 -4z
m-268 -78 c0 -37 -4 -65 -10 -65 -5 0 -10 18 -10 40 0 27 -5 43 -15 46 -8 4
-15 15 -15 25 0 14 7 19 25 19 24 0 25 -2 25 -65z m353 -132 c-7 -2 -21 -2
-30 0 -10 3 -4 5 12 5 17 0 24 -2 18 -5z"/>
<path d="M2510 761 l0 -261 40 0 c33 0 40 -3 40 -20 0 -17 -7 -20 -40 -20
l-40 0 0 -160 c0 -100 4 -160 10 -160 6 0 10 -13 10 -30 l0 -30 75 0 75 0 0
65 c0 37 -4 65 -10 65 -6 0 -10 30 -10 70 0 56 3 70 15 70 11 0 15 11 15 40
l0 39 103 3 102 3 3 28 c3 27 4 27 78 27 l74 0 0 75 0 75 65 0 65 0 0 30 0 30
-65 0 -65 0 0 60 c0 69 -29 157 -64 189 -50 47 -118 63 -303 69 l-173 5 0
-262z m339 63 c16 -21 21 -41 21 -91 0 -91 -9 -103 -75 -103 -48 0 -55 -2 -55
-20 0 -15 -7 -20 -25 -20 l-25 0 0 130 0 130 69 0 c63 0 71 -2 90 -26z m191
-154 c0 -16 -7 -20 -35 -20 -28 0 -35 4 -35 20 0 16 7 20 35 20 28 0 35 -4 35
-20z"/>
<path d="M3370 685 l0 -335 25 0 c14 0 25 -4 25 -10 0 -5 -11 -10 -25 -10
l-25 0 0 -115 0 -115 120 0 c73 0 120 -4 120 -10 0 -6 38 -10 95 -10 l95 0 0
30 c0 28 3 30 35 30 19 0 35 5 35 10 0 6 -16 10 -35 10 -34 0 -35 1 -35 40 l0
40 -135 0 -135 0 0 195 c0 167 2 195 15 195 13 0 15 28 15 195 l0 195 -95 0
-95 0 0 -335z m413 -542 c-7 -2 -19 -2 -25 0 -7 3 -2 5 12 5 14 0 19 -2 13 -5z"/>
<path d="M4107 1013 c-4 -3 -7 -98 -7 -209 0 -203 0 -203 -22 -206 -30 -4 -30
-32 -1 -36 23 -3 23 -4 25 -240 l3 -237 83 -3 82 -3 0 236 c0 150 4 235 10
235 6 0 10 85 10 235 l0 235 -88 0 c-49 0 -92 -3 -95 -7z m83 -433 c0 -5 -18
-10 -40 -10 -22 0 -40 5 -40 10 0 6 18 10 40 10 22 0 40 -4 40 -10z"/>
<path d="M4560 805 l0 -215 30 0 c17 0 30 -4 30 -10 0 -5 -9 -10 -20 -10 -19
0 -20 -7 -20 -165 0 -103 -4 -165 -10 -165 -5 0 -10 -20 -10 -45 0 -38 3 -45
20 -45 11 0 20 -4 20 -10 0 -5 -9 -10 -20 -10 -15 0 -20 -7 -20 -25 0 -23 4
-25 45 -25 25 0 45 5 45 10 0 6 23 10 50 10 l50 0 0 115 0 115 45 0 c25 0 45
5 45 10 0 6 -20 10 -45 10 l-45 0 0 39 c0 29 -5 41 -17 44 -10 3 3 5 30 6 40
1 47 4 47 21 0 17 8 19 87 22 58 2 88 7 91 16 2 6 -3 12 -12 12 -12 0 -16 10
-16 35 0 24 5 35 15 35 10 0 15 10 15 30 l0 30 -120 0 -120 0 0 105 0 105 140
0 140 0 0 85 0 85 -235 0 -235 0 0 -215z m163 -462 c-13 -2 -33 -2 -45 0 -13
2 -3 4 22 4 25 0 35 -2 23 -4z"/>
<path d="M5324 960 l7 -60 -61 0 c-53 0 -60 -2 -60 -20 0 -18 7 -20 63 -20
l62 0 39 -92 c93 -222 113 -258 140 -258 14 0 26 -4 26 -10 0 -5 -11 -10 -25
-10 l-25 0 0 -130 c0 -109 2 -130 15 -130 12 0 15 -15 15 -75 l0 -75 95 0 95
0 0 150 0 150 35 0 c28 0 35 4 35 20 0 16 -7 20 -35 20 l-35 0 0 74 0 75 32 3
c30 3 34 9 84 124 49 113 84 238 84 299 l0 26 -87 -3 -88 -3 -7 -68 c-9 -95
-118 -386 -118 -317 0 6 -20 65 -45 131 -29 78 -47 145 -51 190 l-7 69 -95 0
-95 0 7 -60z m86 -75 c0 -10 -11 -15 -35 -15 -24 0 -35 5 -35 15 0 10 11 15
35 15 24 0 35 -5 35 -15z m290 -485 c0 -5 -20 -10 -45 -10 -25 0 -45 5 -45 10
0 6 20 10 45 10 25 0 45 -4 45 -10z"/>
<path d="M6670 685 l0 -335 25 0 c14 0 25 -4 25 -10 0 -5 -11 -10 -25 -10
l-25 0 0 -115 0 -115 125 0 c77 0 125 -4 125 -10 0 -6 37 -10 90 -10 l90 0 0
30 c0 28 3 30 35 30 19 0 35 5 35 10 0 6 -16 10 -35 10 -34 0 -35 1 -35 40 l0
40 -135 0 -135 0 0 195 c0 167 2 195 15 195 13 0 15 28 15 195 l0 195 -95 0
-95 0 0 -335z m413 -542 c-7 -2 -19 -2 -25 0 -7 3 -2 5 12 5 14 0 19 -2 13 -5z"/>
<path d="M7410 810 l0 -210 -25 0 c-18 0 -25 -5 -25 -20 0 -15 7 -20 25 -20
l25 0 0 -240 0 -240 80 0 80 0 0 235 c0 150 4 235 10 235 6 0 10 85 10 235 l0
235 -90 0 -90 0 0 -210z m90 -230 c0 -5 -18 -10 -40 -10 -22 0 -40 5 -40 10 0
6 18 10 40 10 22 0 40 -4 40 -10z"/>
<path d="M7860 805 l0 -215 30 0 c17 0 30 -4 30 -10 0 -5 -9 -10 -20 -10 -19
0 -20 -7 -20 -165 0 -103 -4 -165 -10 -165 -5 0 -10 -20 -10 -45 0 -41 2 -45
25 -45 14 0 25 -4 25 -10 0 -5 -11 -10 -25 -10 -20 0 -25 -5 -25 -25 0 -23 4
-25 45 -25 25 0 45 5 45 10 0 6 23 10 50 10 l50 0 0 115 0 115 45 0 c25 0 45
5 45 10 0 6 -20 10 -45 10 l-45 0 0 39 c0 22 -5 42 -12 44 -7 3 6 6 30 6 35 1
42 4 42 21 0 19 7 20 90 20 73 0 90 3 90 15 0 8 -7 15 -15 15 -11 0 -13 8 -8
33 3 17 10 34 15 35 4 2 8 17 8 33 l0 29 -120 0 -120 0 0 105 0 105 140 0 140
0 0 85 0 85 -235 0 -235 0 0 -215z m168 -462 c-10 -2 -28 -2 -40 0 -13 2 -5 4
17 4 22 1 32 -1 23 -4z"/>
<path d="M8650 790 l0 -230 -75 0 c-60 0 -75 -3 -75 -15 0 -12 15 -15 75 -15
l75 0 0 -60 c0 -33 4 -60 10 -60 6 0 10 -62 10 -165 l0 -165 70 0 c40 0 70 4
70 10 0 6 55 10 145 10 l145 0 0 53 c0 28 3 62 6 75 6 22 6 22 -110 22 l-116
0 0 25 c0 21 -5 25 -32 26 l-33 1 30 7 30 6 3 93 3 92 99 0 c54 0 101 4 104 8
3 5 2 41 -1 80 l-6 72 -118 0 -119 0 0 95 0 95 135 0 135 0 0 85 0 85 -230 0
-230 0 0 -230z m58 -247 c-10 -2 -26 -2 -35 0 -10 3 -2 5 17 5 19 0 27 -2 18
-5z"/>
<path d="M326 995 c-94 -33 -136 -98 -136 -208 0 -89 15 -137 57 -187 l35 -40
-37 0 c-25 0 -35 -4 -33 -12 3 -9 33 -14 91 -16 l87 -3 0 -34 0 -35 75 0 75 0
0 -115 0 -115 -95 0 -95 0 0 80 0 80 -95 0 c-78 0 -95 -3 -95 -15 0 -11 -11
-15 -36 -15 -28 0 -35 -3 -32 -17 2 -12 14 -19 36 -21 31 -3 32 -5 32 -48 l0
-44 45 0 45 0 0 -75 0 -75 210 0 210 0 0 75 c0 73 1 75 25 75 l25 0 0 140 c0
87 -4 140 -10 140 -5 0 -10 5 -10 10 0 6 14 10 30 10 20 0 30 5 30 15 0 10
-11 15 -35 15 -19 0 -35 -4 -35 -10 0 -6 -41 -9 -107 -8 -103 2 -104 2 -25 5
45 2 82 7 82 11 0 11 -60 47 -145 86 -107 50 -125 67 -125 126 0 61 20 80 86
80 27 0 54 -4 60 -8 16 -11 34 -48 34 -71 0 -23 16 -26 107 -15 l53 7 -6 41
c-9 56 -41 130 -68 155 -12 11 -41 27 -65 36 -55 19 -192 19 -245 0z m-116
-650 c0 -9 -9 -15 -25 -15 -16 0 -25 6 -25 15 0 9 9 15 25 15 16 0 25 -6 25
-15z"/>
</g>
</svg>
