<svg version="1.0" xmlns="http://www.w3.org/2000/svg"
 width="400.000000pt" height="300.000000pt" viewBox="0 0 400.000000 300.000000"
 preserveAspectRatio="xMidYMid meet">

<g transform="translate(0.000000,300.000000) scale(0.100000,-0.100000)"
fill="#000000" stroke="none">
<path d="M343 2653 c-10 -4 -13 -115 -13 -508 0 -495 0 -504 20 -510 20 -6 20
-15 20 -471 l0 -464 45 0 45 0 0 -155 0 -155 508 2 507 3 3 123 3 122 109 0
110 0 0 265 0 265 -75 0 -75 0 0 45 0 44 78 3 77 3 3 685 c2 635 1 686 -15
698 -21 15 -385 17 -414 2 -19 -10 -19 -29 -19 -740 l0 -730 -55 0 -55 0 0
-195 0 -195 -100 0 c-151 0 -202 27 -242 129 -19 50 -22 80 -26 261 l-4 205
119 0 118 0 3 38 3 37 -120 0 -121 0 0 594 c0 532 -2 594 -16 600 -19 7 -403
7 -421 -1z m425 -1230 l-3 -28 -95 0 -95 0 -3 28 -3 27 101 0 101 0 -3 -27z"/>
<path d="M2930 2653 c-86 -6 -205 -24 -260 -39 -182 -51 -317 -175 -384 -352
-53 -140 -57 -178 -63 -609 l-5 -403 -34 0 -34 0 0 -160 0 -160 70 0 70 0 0
-129 c0 -112 2 -130 17 -135 9 -4 78 -6 153 -5 l135 1 0 -28 0 -29 -102 -3
-103 -3 0 -88 c0 -74 3 -90 17 -95 9 -4 80 -6 157 -5 95 1 141 -2 144 -10 5
-14 322 -15 322 -1 0 6 70 10 189 10 104 0 196 3 205 6 14 5 16 31 16 180 l0
174 95 0 95 0 -2 288 -3 287 -172 3 -173 2 0 -285 0 -285 -300 0 -300 0 0 270
0 269 -72 3 -73 3 0 30 0 30 73 3 72 3 0 227 c0 253 19 455 49 525 36 83 106
117 241 117 72 0 95 -4 131 -23 86 -46 122 -120 136 -281 l6 -69 151 7 c83 4
176 11 206 14 l55 7 3 50 c3 44 -2 85 -24 197 l-5 28 167 2 c146 3 168 5 178
21 8 12 8 22 0 35 -10 15 -34 18 -188 22 l-177 5 -27 60 c-38 84 -49 101 -89
146 -43 48 -132 103 -208 129 -54 19 -257 52 -293 48 -9 -1 -37 -3 -62 -5z
m675 -428 c0 -19 -7 -20 -95 -20 -91 0 -95 1 -98 23 -3 23 -3 23 95 20 90 -3
98 -5 98 -23z"/>
</g>
</svg>
