<?xml version="1.0" standalone="no"?>
<!DOCTYPE svg PUBLIC "-//W3C//DTD SVG 20010904//EN"
 "http://www.w3.org/TR/2001/REC-SVG-20010904/DTD/svg10.dtd">
<svg version="1.0" xmlns="http://www.w3.org/2000/svg"
 width="850.000000pt" height="110.000000pt" viewBox="0 0 850.000000 110.000000"
 preserveAspectRatio="xMidYMid meet">

<g transform="translate(0.000000,110.000000) scale(0.100000,-0.100000)"
fill="#000000" stroke="none">
<path d="M60 897 c0 -63 3 -243 7 -400 6 -270 7 -287 25 -287 16 0 18 -9 18
-65 l0 -65 210 0 210 0 0 50 0 50 45 0 45 0 0 110 0 110 -30 0 c-42 0 -40 28
3 32 l32 3 0 285 0 285 -92 3 -93 3 0 -301 0 -300 -25 0 c-25 0 -25 -1 -25
-85 l0 -85 -29 0 c-47 0 -87 19 -101 48 -7 15 -15 66 -18 115 l-5 87 52 0 c39
0 51 4 51 15 0 11 -12 15 -50 15 l-50 0 0 245 0 245 -90 0 -90 0 0 -113z m158
-394 c-10 -2 -28 -2 -40 0 -13 2 -5 4 17 4 22 1 32 -1 23 -4z"/>
<path d="M820 930 l0 -80 90 0 90 0 0 -385 0 -385 90 0 c53 0 90 4 90 10 0 6
-9 10 -20 10 -11 0 -20 5 -20 10 0 6 11 10 25 10 22 0 25 4 25 35 0 34 1 35
40 35 29 0 40 4 40 15 0 11 -11 15 -40 15 l-40 0 0 315 0 315 90 0 90 0 0 80
0 80 -275 0 -275 0 0 -80z m353 -727 c-7 -2 -21 -2 -30 0 -10 3 -4 5 12 5 17
0 24 -2 18 -5z"/>
<path d="M1570 800 l0 -210 -25 0 c-16 0 -25 -6 -25 -15 0 -9 9 -15 25 -15
l25 0 0 -240 0 -240 80 0 80 0 0 235 c0 202 2 235 15 235 13 0 15 32 15 230
l0 230 -95 0 -95 0 0 -210z m73 -227 c-13 -2 -33 -2 -45 0 -13 2 -3 4 22 4 25
0 35 -2 23 -4z"/>
<path d="M1990 680 c0 -323 0 -330 20 -330 11 0 20 -4 20 -10 0 -5 -9 -10 -20
-10 -19 0 -20 -7 -20 -120 l0 -120 73 0 c39 0 136 -3 215 -7 l142 -6 0 26 c0
23 4 27 30 27 20 0 30 5 30 15 0 10 -10 15 -30 15 -28 0 -30 2 -30 40 l0 40
-140 0 -140 0 0 190 c0 183 1 190 20 190 19 0 20 7 20 195 l0 195 -95 0 -95 0
0 -330z m413 -537 c-7 -2 -21 -2 -30 0 -10 3 -4 5 12 5 17 0 24 -2 18 -5z"/>
<path d="M2720 800 l0 -210 -25 0 c-16 0 -25 -6 -25 -15 0 -9 9 -15 25 -15
l25 0 0 -240 0 -240 85 0 85 0 0 235 c0 150 4 235 10 235 6 0 10 83 10 230 l0
230 -95 0 -95 0 0 -210z m73 -227 c-13 -2 -33 -2 -45 0 -13 2 -3 4 22 4 25 0
35 -2 23 -4z"/>
<path d="M3100 930 l0 -80 90 0 90 0 0 -385 0 -385 90 0 c53 0 90 4 90 10 0 6
-9 10 -20 10 -11 0 -20 5 -20 10 0 6 11 10 25 10 22 0 25 4 25 35 0 34 1 35
40 35 29 0 40 4 40 15 0 11 -11 15 -40 15 l-40 0 0 315 0 315 90 0 90 0 0 80
0 80 -275 0 -275 0 0 -80z m353 -727 c-7 -2 -21 -2 -30 0 -10 3 -4 5 12 5 17
0 24 -2 18 -5z"/>
<path d="M3862 955 l3 -54 -60 -3 c-48 -2 -60 -7 -63 -20 -3 -16 5 -18 67 -18
55 0 71 -3 71 -14 0 -8 31 -86 69 -173 67 -151 71 -158 100 -161 37 -4 42 -22
6 -22 l-25 0 0 -130 c0 -109 2 -130 15 -130 12 0 15 -15 15 -75 l0 -75 95 0
95 0 0 145 0 145 35 0 c28 0 35 4 35 20 0 16 -7 20 -35 20 l-35 0 0 75 0 75
28 0 c27 0 31 7 84 133 53 125 69 178 83 275 l7 42 -90 0 -89 0 -7 -65 c-4
-38 -25 -116 -52 -188 -25 -67 -47 -129 -50 -137 -5 -15 -76 156 -100 245 -8
27 -14 71 -14 97 l0 48 -96 0 -96 0 4 -55z m88 -75 c0 -5 -16 -10 -35 -10 -19
0 -35 5 -35 10 0 6 16 10 35 10 19 0 35 -4 35 -10z m290 -490 c0 -5 -20 -10
-45 -10 -25 0 -45 5 -45 10 0 6 20 10 45 10 25 0 45 -4 45 -10z"/>
<path d="M5437 996 c-67 -18 -117 -62 -152 -131 -29 -59 -30 -63 -34 -243 -2
-147 -6 -182 -17 -182 -11 0 -14 -17 -14 -70 l0 -70 30 0 c30 0 30 -1 30 -55
l0 -55 65 0 c37 0 65 -4 65 -10 0 -5 -20 -10 -45 -10 l-45 0 0 -38 0 -39 97
-6 c53 -4 149 -4 215 0 l118 6 0 69 0 68 40 0 40 0 0 120 0 120 -75 0 -75 0 0
-115 0 -115 -120 0 -120 0 0 110 0 110 -30 0 c-20 0 -30 5 -30 15 0 10 10 15
30 15 l30 0 0 93 c0 131 14 216 40 241 16 16 33 21 76 21 48 0 59 -4 80 -28
14 -16 26 -46 30 -75 l6 -49 82 5 c44 2 84 7 88 11 4 4 4 30 -1 59 l-8 52 68
0 c55 0 69 3 69 15 0 12 -15 15 -73 15 l-73 0 -12 34 c-17 47 -71 92 -134 111
-62 18 -175 19 -241 1z m366 -163 c-13 -2 -33 -2 -45 0 -13 2 -3 4 22 4 25 0
35 -2 23 -4z"/>
<path d="M6315 992 c-146 -50 -185 -149 -185 -468 l0 -144 -40 0 c-36 0 -40
-2 -40 -25 0 -24 3 -25 55 -25 l55 0 0 -50 0 -50 40 0 40 0 0 -60 c0 -53 2
-60 20 -60 11 0 20 -7 20 -15 0 -13 24 -15 160 -15 136 0 160 2 160 15 0 11
12 15 45 15 l45 0 0 60 c0 57 1 60 25 60 l25 0 0 170 0 170 55 0 c48 0 55 2
55 20 0 18 -7 20 -55 20 l-55 0 0 48 c0 130 -38 242 -98 292 -71 58 -223 78
-327 42z m191 -165 c25 -22 28 -30 33 -128 3 -57 5 -173 3 -256 l-3 -153 -35
0 c-30 0 -34 -3 -34 -25 0 -24 -2 -25 -70 -25 l-70 0 0 165 0 165 -35 0 c-24
0 -35 5 -35 15 0 10 10 15 34 15 l33 0 5 93 c3 51 10 103 17 115 25 47 113 57
157 19z m224 -242 c0 -10 -10 -15 -30 -15 -20 0 -30 5 -30 15 0 10 10 15 30
15 20 0 30 -5 30 -15z m-520 -230 c0 -18 -5 -25 -20 -25 -15 0 -20 7 -20 25 0
18 5 25 20 25 15 0 20 -7 20 -25z"/>
<path d="M7040 785 c0 -138 4 -225 10 -225 5 0 11 -45 12 -102 l3 -103 93 -3
c125 -4 119 -22 -8 -22 -82 0 -100 3 -100 15 0 11 -12 15 -45 15 -38 0 -45 -3
-45 -20 0 -17 7 -20 40 -20 l40 0 0 -120 0 -120 110 0 c67 0 110 4 110 10 0 6
42 10 105 10 l105 0 0 80 0 80 95 0 95 0 0 30 0 30 90 0 c83 0 90 1 90 20 0
19 -7 20 -90 20 l-90 0 0 110 c0 86 -3 110 -14 110 -9 0 -15 24 -19 88 -15
197 -69 291 -189 327 -38 11 -99 15 -225 15 l-173 0 0 -225z m333 44 c38 -17
58 -69 64 -169 3 -50 10 -90 14 -90 5 0 9 -43 9 -95 l0 -95 -40 0 c-22 0 -40
-4 -40 -10 0 -6 -27 -10 -60 -10 l-60 0 0 115 c0 96 -3 115 -15 115 -13 0 -15
21 -15 131 l0 132 59 -6 c32 -4 70 -12 84 -18z m277 -489 c0 -6 -50 -10 -130
-10 -80 0 -130 4 -130 10 0 6 50 10 130 10 80 0 130 -4 130 -10z m-270 -45 c0
-24 -3 -25 -60 -25 -57 0 -60 1 -60 25 0 24 3 25 60 25 57 0 60 -1 60 -25z"/>
<path d="M7967 1003 c-4 -3 -7 -107 -7 -230 l0 -223 -70 0 c-40 0 -70 -4 -70
-10 0 -6 30 -10 70 -10 l70 0 0 -54 c0 -30 5 -58 10 -61 6 -4 10 -72 10 -171
l0 -164 75 0 c43 0 75 4 75 10 0 6 53 10 140 10 l140 0 0 55 c0 30 5 55 10 55
6 0 10 7 10 15 0 13 -20 15 -120 15 l-120 0 0 29 c0 25 -5 30 -27 34 l-28 4
28 2 27 1 0 95 0 95 104 0 c58 0 107 3 109 8 3 4 3 37 0 75 l-6 67 -118 0
-119 0 0 100 0 100 135 0 135 0 0 80 0 80 -228 0 c-126 0 -232 -3 -235 -7z
m73 -463 c0 -5 -16 -10 -35 -10 -19 0 -35 5 -35 10 0 6 16 10 35 10 19 0 35
-4 35 -10z"/>
</g>
</svg>
